<?xml version="1.0" standalone="no"?>
<!DOCTYPE svg PUBLIC "-//W3C//DTD SVG 20010904//EN"
 "http://www.w3.org/TR/2001/REC-SVG-20010904/DTD/svg10.dtd">
<svg version="1.0" xmlns="http://www.w3.org/2000/svg"
 width="2000.000000pt" height="2000.000000pt" viewBox="0 0 2000.000000 2000.000000"
 preserveAspectRatio="xMidYMid meet">
<metadata>
Created by potrace 1.11, written by Peter Selinger 2001-2013
</metadata>
<g transform="translate(0.000000,2000.000000) scale(0.100000,-0.100000)"
fill="#000000" stroke="none">
<path d="M9953 19686 c-58 -33 -120 -82 -245 -192 -268 -235 -682 -552 -1038
-794 -107 -74 -220 -152 -250 -176 -30 -23 -78 -53 -106 -67 -28 -15 -125 -70
-215 -125 -90 -54 -200 -118 -244 -142 -44 -23 -92 -53 -107 -66 -60 -49 -681
-344 -727 -344 -19 0 -51 -29 -51 -47 0 -20 -28 -34 -84 -43 -31 -5 -102 -28
-159 -51 -56 -23 -140 -57 -187 -76 -46 -19 -111 -39 -143 -44 -39 -7 -75 -21
-108 -44 -37 -25 -77 -40 -167 -61 -137 -31 -201 -51 -222 -69 -25 -21 -78
-34 -287 -70 -109 -18 -217 -40 -239 -49 -21 -8 -58 -21 -81 -30 -47 -18 -318
-50 -568 -68 -238 -17 -1217 -17 -1400 0 -422 39 -576 60 -684 93 -35 10 -157
35 -270 54 -219 37 -262 48 -299 76 -13 10 -67 27 -120 39 -206 46 -269 63
-313 87 -25 13 -104 39 -174 59 -71 19 -192 61 -269 93 -78 32 -161 62 -186
65 -25 4 -93 29 -151 56 -58 27 -193 87 -300 133 -107 46 -217 96 -246 111
-129 65 -139 24 -99 -409 30 -325 42 -481 56 -765 15 -292 49 -780 61 -880 5
-47 21 -148 34 -225 14 -77 43 -284 65 -460 106 -834 210 -1402 444 -2425 70
-307 98 -409 141 -509 14 -35 31 -92 36 -125 11 -63 50 -212 99 -376 168 -553
336 -1053 389 -1158 11 -21 29 -75 40 -120 11 -45 39 -126 61 -179 23 -54 85
-208 140 -343 54 -135 126 -310 160 -390 239 -556 707 -1492 1026 -2051 226
-397 778 -1279 878 -1403 17 -21 96 -132 176 -247 279 -399 512 -703 889
-1154 555 -666 654 -765 767 -765 49 0 216 -24 312 -45 82 -17 140 -19 161 -6
25 16 3 57 -84 149 -96 104 -108 130 -78 182 30 52 77 82 111 69 36 -13 153
-129 208 -205 68 -95 68 -132 2 -148 -61 -14 -36 -99 46 -153 58 -39 75 -40
141 -8 28 14 57 25 66 25 30 0 105 -58 186 -144 101 -107 104 -121 35 -189
-70 -69 -85 -65 -168 35 l-69 81 -6 -30 c-8 -40 6 -512 16 -535 5 -12 18 -18
40 -18 58 0 198 29 289 59 123 41 159 80 86 94 -77 16 -32 157 50 157 46 0 91
-22 148 -74 80 -71 103 -80 192 -73 41 3 202 28 357 57 475 85 764 122 1223
152 265 18 1587 17 1870 0 671 -42 1083 -96 1660 -217 118 -25 218 -45 223
-45 4 0 70 61 147 135 163 157 172 160 237 93 57 -60 64 -77 48 -109 -8 -14
-25 -33 -38 -41 -42 -29 -137 -120 -137 -133 0 -7 14 -18 30 -24 41 -14 277
-37 287 -28 4 4 7 101 7 215 1 204 1 208 -26 273 -35 83 -35 106 0 155 65 89
168 166 265 198 114 38 481 84 727 92 96 3 185 7 196 10 13 2 83 77 171 181
729 870 768 917 983 1203 178 236 319 426 340 456 8 12 70 99 138 193 431 601
968 1501 1432 2401 141 274 175 342 317 640 122 253 269 590 363 830 49 123
75 189 191 468 21 52 43 119 49 149 5 31 22 81 36 112 105 228 460 1343 493
1547 5 33 22 90 37 125 50 119 86 260 234 924 144 643 265 1337 350 2010 22
176 54 401 70 500 16 99 36 268 45 375 8 107 20 247 25 310 5 63 19 279 30
480 24 437 55 847 71 952 10 61 10 82 -1 107 -20 50 -48 50 -158 -2 -53 -25
-185 -84 -292 -130 -107 -47 -224 -99 -259 -116 -36 -16 -85 -33 -110 -37 -25
-3 -109 -33 -187 -65 -77 -32 -197 -74 -265 -92 -69 -19 -154 -49 -190 -65
-35 -17 -129 -47 -209 -66 -80 -19 -175 -46 -211 -59 -158 -60 -773 -175
-1114 -209 -182 -18 -1467 -18 -1650 0 -331 33 -913 147 -1056 207 -31 13
-128 43 -215 66 -87 23 -198 59 -246 80 -142 62 -432 168 -526 192 -69 18 -88
27 -90 42 -6 31 -21 44 -64 56 -97 26 -674 304 -723 349 -11 10 -67 44 -124
75 -57 31 -166 94 -241 140 -76 46 -162 96 -192 110 -29 15 -78 46 -108 69
-30 24 -143 102 -250 176 -353 240 -741 536 -995 759 -141 123 -251 209 -302
235 -39 19 -30 20 -80 -8z m194 -593 c138 -105 224 -177 233 -193 14 -26 -1
-60 -49 -110 -35 -36 -44 -41 -68 -35 -54 13 -269 191 -279 230 -11 43 62 145
102 145 7 0 34 -17 61 -37z m-365 -107 c33 -24 78 -89 78 -110 0 -27 -112
-135 -206 -199 -109 -74 -162 -73 -194 3 -10 23 -9 35 5 65 24 50 92 123 181
195 76 61 105 70 136 46z m907 -318 c13 -16 67 -60 120 -97 92 -66 131 -109
131 -146 0 -9 -15 -32 -34 -51 -58 -58 -98 -48 -246 61 -47 34 -104 75 -127
90 -26 17 -43 35 -43 47 0 22 81 112 125 140 28 17 31 17 40 2 6 -9 21 -30 34
-46z m-1415 -136 c29 -27 44 -65 36 -88 -17 -44 -171 -164 -265 -205 -52 -23
-87 -18 -109 17 -36 54 -15 104 79 192 128 121 194 142 259 84z m2016 -286
c172 -101 219 -188 144 -263 -21 -21 -32 -24 -62 -19 -49 8 -311 184 -312 210
0 21 41 73 79 98 40 27 70 22 151 -26z m-2593 -88 c56 -62 57 -105 4 -150 -49
-41 -233 -156 -273 -170 -36 -13 -62 7 -90 69 -17 39 -17 45 -3 72 24 47 270
201 320 201 12 0 31 -10 42 -22z m491 -100 c30 -33 116 -208 157 -323 113
-312 142 -601 82 -825 -32 -120 -28 -140 53 -294 48 -92 61 -126 56 -147 -7
-36 1 -57 25 -70 39 -20 149 60 329 241 274 274 385 483 470 885 36 171 50
205 83 205 23 0 67 -40 104 -95 50 -75 79 -249 69 -420 -12 -227 -49 -368
-159 -617 -75 -169 -75 -218 0 -218 73 0 125 42 217 172 78 113 113 114 109 4
-3 -70 -37 -198 -84 -315 -88 -218 -89 -222 -89 -314 0 -74 41 -441 68 -607
l7 -45 58 82 c62 88 138 226 156 284 7 20 21 45 32 55 17 16 21 16 35 3 25
-26 35 -124 24 -239 -32 -317 -91 -508 -251 -800 -86 -159 -157 -337 -195
-489 -18 -75 -45 -169 -59 -208 -14 -40 -25 -83 -25 -95 1 -38 36 -106 60
-113 28 -9 110 31 325 160 161 96 243 132 271 121 21 -8 14 -52 -20 -132 -14
-34 -30 -94 -36 -134 -13 -93 -44 -150 -141 -259 -90 -102 -160 -164 -289
-256 -128 -92 -184 -139 -324 -275 -239 -231 -393 -404 -384 -432 3 -7 40 -24
83 -39 124 -40 119 -24 126 -377 4 -163 10 -309 14 -324 4 -15 17 -31 28 -34
32 -11 258 -7 362 6 190 23 264 54 511 212 376 241 487 295 939 450 338 116
466 151 714 193 314 54 569 78 831 79 194 0 239 -3 323 -21 122 -27 165 -48
247 -119 36 -32 84 -66 108 -76 43 -19 221 -47 300 -48 64 0 131 -20 147 -43
43 -61 -4 -140 -90 -156 -28 -5 -79 -23 -115 -40 -74 -35 -107 -38 -156 -15
-43 21 -73 63 -81 111 -6 39 -19 63 -34 63 -18 0 -47 -62 -53 -113 -9 -66 -19
-77 -61 -70 -30 5 -36 2 -46 -21 -11 -23 -9 -30 9 -56 21 -27 21 -30 4 -46
-37 -38 -284 -134 -343 -134 -53 0 -117 89 -92 129 14 22 157 92 292 144 101
38 116 47 133 77 38 69 -3 184 -82 229 -64 36 -174 51 -435 57 -259 7 -517 -5
-657 -32 -120 -22 -467 -110 -578 -145 -52 -17 -142 -50 -200 -74 -58 -24
-139 -54 -180 -68 -194 -65 -875 -410 -995 -504 -83 -65 -90 -84 -90 -243 0
-74 3 -234 5 -355 3 -121 1 -241 -3 -267 -9 -54 -43 -100 -91 -125 -44 -23
-203 -63 -251 -63 -49 0 -61 8 -83 51 -12 24 -25 35 -45 37 -57 7 -149 -77
-160 -146 -8 -48 -49 -88 -135 -131 -127 -64 -218 -76 -272 -36 -41 30 -54 31
-127 5 -67 -23 -99 -51 -123 -105 -28 -64 -93 -111 -223 -160 -93 -35 -117
-33 -157 11 -45 50 -99 71 -222 88 -134 19 -210 48 -354 136 -168 101 -178
103 -434 104 -199 1 -218 3 -255 23 -85 45 -109 98 -109 243 -1 129 19 179 90
230 46 33 84 82 84 109 0 25 -32 51 -61 51 -33 0 -140 55 -263 134 -185 119
-237 135 -395 116 -131 -15 -404 -69 -531 -105 -122 -35 -182 -64 -198 -95
-21 -39 -9 -303 32 -705 44 -442 86 -934 86 -1020 0 -74 -7 -82 -65 -71 -25 5
-39 15 -50 36 -23 45 -43 184 -65 470 -48 612 -106 958 -159 948 -33 -6 -43
-89 -37 -308 5 -198 11 -256 55 -550 31 -206 44 -351 45 -505 1 -154 -8 -189
-47 -183 -53 7 -77 118 -112 516 -34 387 -51 520 -69 547 -19 28 -63 39 -100
25 -32 -12 -32 8 3 -195 11 -66 36 -279 56 -474 36 -354 54 -482 75 -521 10
-18 17 -20 53 -15 53 8 103 -22 131 -78 37 -77 -7 -113 -227 -188 -123 -41
-139 -37 -184 46 -18 33 -33 68 -33 77 0 24 31 38 87 38 52 0 66 6 75 31 4 9
-11 106 -33 215 -22 110 -64 345 -95 524 -30 179 -66 374 -80 434 -33 137 -31
142 78 195 129 61 131 65 139 232 4 77 12 153 19 170 14 32 49 54 143 89 90
34 102 60 81 172 -21 107 -19 145 9 162 12 8 76 27 142 41 66 15 150 40 186
56 76 33 99 38 323 78 169 30 220 48 210 76 -4 8 -56 50 -118 94 -147 104
-403 306 -546 431 -191 168 -332 252 -478 285 -39 9 -90 29 -114 45 -49 33
-69 37 -233 49 -138 11 -246 41 -370 103 -111 56 -156 89 -264 191 -118 112
-162 134 -301 146 -89 7 -106 11 -122 31 -16 19 -16 25 -3 49 20 40 83 94 195
167 128 84 260 146 383 180 62 17 111 37 133 55 47 37 92 45 185 31 169 -24
398 -116 659 -264 635 -360 942 -369 1147 -33 64 106 132 314 133 403 0 116
-149 205 -390 233 -83 9 -145 9 -295 -1 -266 -17 -397 0 -540 72 -88 45 -161
97 -245 175 -146 135 -261 211 -393 258 -26 9 -52 26 -59 38 -10 19 -6 26 30
58 47 41 141 75 237 85 96 10 229 41 431 100 256 74 282 76 469 29 245 -61
341 -99 534 -213 72 -42 98 -53 110 -45 19 12 28 91 30 263 2 152 16 236 47
282 14 20 41 85 60 144 25 82 41 116 68 143 19 20 48 64 65 99 62 123 155 254
376 527 257 318 591 773 668 909 55 99 201 406 253 534 18 47 38 110 44 140 5
31 19 65 29 76 11 12 25 35 31 51 15 40 47 196 66 320 15 101 38 189 57 213
14 18 31 15 55 -10z m2727 -194 c125 -62 185 -104 185 -130 0 -11 -17 -45 -38
-75 -36 -51 -41 -54 -79 -53 -70 1 -295 154 -309 209 -7 27 17 78 46 98 29 20
83 7 195 -49z m-3795 -65 c51 -57 42 -114 -26 -161 -50 -35 -178 -94 -237
-110 -44 -11 -48 -11 -73 12 -38 35 -69 107 -54 125 23 28 186 118 265 146 71
26 92 24 125 -12z m4343 -220 c111 -50 191 -100 213 -133 20 -32 13 -83 -18
-115 -18 -20 -28 -23 -81 -19 -49 4 -82 16 -194 73 -74 38 -136 72 -138 76 -6
9 46 107 72 135 12 13 30 24 39 24 9 0 57 -18 107 -41z m-4943 -99 c26 -50 25
-90 -1 -124 -27 -34 -52 -47 -182 -90 -169 -57 -227 -46 -227 39 0 37 5 48 40
79 71 64 233 134 312 135 34 1 40 -3 58 -39z m-6800 -40 c104 -23 110 -38 110
-247 0 -150 -1 -155 -25 -178 -20 -21 -34 -25 -80 -25 -87 0 -101 19 -110 153
-9 131 2 272 22 293 17 16 23 17 83 4z m18651 -7 c10 -11 14 -46 14 -114 0
-86 -3 -101 -20 -119 -26 -25 -109 -40 -230 -40 -107 0 -124 9 -160 80 -43 85
-38 93 65 105 38 5 70 17 105 41 46 31 138 61 191 63 12 1 28 -6 35 -16z
m-6289 -117 c81 -29 147 -66 199 -113 51 -46 54 -89 8 -127 -42 -36 -96 -35
-179 5 -36 17 -88 40 -116 50 -67 25 -86 48 -92 109 -9 101 44 124 180 76z
m-11772 -71 c76 -25 149 -54 162 -65 l23 -18 -25 -73 c-14 -40 -33 -77 -43
-83 -14 -9 -49 0 -162 38 -80 27 -162 59 -182 71 -36 20 -38 23 -38 71 1 119
49 129 265 59z m5531 25 c24 -14 60 -84 61 -121 2 -55 -51 -90 -192 -124 -41
-10 -108 -19 -148 -19 -67 -1 -75 1 -92 24 -11 14 -20 39 -20 57 0 45 44 75
160 108 52 15 120 40 150 55 66 34 57 32 81 20z m11838 -80 c71 -20 117 -104
75 -135 -30 -22 -191 -57 -294 -62 -92 -5 -96 -5 -127 21 -36 30 -48 67 -32
97 29 56 279 108 378 79z m-4896 -119 c88 -22 167 -47 178 -57 28 -26 25 -78
-7 -103 -42 -33 -126 -45 -223 -32 -47 7 -100 19 -118 26 -54 23 -77 101 -52
174 14 41 25 40 222 -8z m-11846 3 c103 -21 180 -51 198 -77 19 -27 19 -76 0
-103 -19 -28 -67 -35 -173 -24 -141 15 -193 29 -225 62 -26 26 -29 34 -25 78
3 27 11 56 18 65 17 20 107 20 207 -1z m4277 -26 c29 -41 14 -143 -26 -176
-25 -20 -306 -95 -334 -88 -33 9 -58 60 -50 104 6 38 53 94 100 119 16 8 72
21 125 28 53 8 107 18 121 24 38 15 47 13 64 -11z m11847 1 c6 -13 9 -47 7
-82 -5 -70 -30 -99 -101 -117 -23 -5 -89 -23 -147 -38 -78 -22 -112 -27 -132
-20 -53 19 -62 110 -14 161 38 41 103 68 201 83 51 7 103 18 116 23 38 15 57
13 70 -10z m-15419 -125 c123 -25 168 -56 168 -115 0 -70 -70 -90 -240 -70
-104 13 -172 38 -189 69 -27 51 -4 126 42 135 31 7 140 -2 219 -19z m16669 7
c24 -19 24 -22 24 -199 0 -163 -2 -182 -19 -201 -14 -15 -31 -21 -62 -21 -82
0 -114 32 -114 112 0 65 30 249 46 279 26 51 83 64 125 30z m-4931 -5 c41 -8
110 -18 153 -22 95 -8 117 -28 117 -104 0 -47 -16 -110 -28 -110 -4 0 -72 11
-152 24 -168 27 -213 43 -233 83 -17 34 -29 106 -21 127 8 20 63 21 164 2z
m-8840 -41 c69 -36 39 -111 -65 -163 -62 -31 -213 -72 -266 -72 -56 0 -70 13
-76 74 -10 86 43 144 150 166 74 14 225 12 257 -5z m11849 -9 c26 -23 29 -87
5 -110 -26 -27 -46 -34 -161 -55 -61 -12 -137 -30 -169 -41 -47 -17 -60 -18
-71 -7 -17 17 -27 122 -16 172 13 61 31 66 224 63 148 -3 169 -5 188 -22z
m-13953 -77 c62 -31 81 -63 69 -116 -16 -64 -53 -69 -299 -42 -115 13 -156 29
-156 64 0 56 41 98 115 118 11 3 66 5 121 3 84 -2 110 -7 150 -27z m11885 0
c18 -9 20 -16 14 -42 -4 -18 -13 -56 -19 -84 -6 -29 -16 -57 -21 -62 -7 -7
-35 -7 -80 -1 -39 5 -117 14 -174 20 -110 12 -146 23 -156 48 -5 13 20 108 32
122 18 20 366 20 404 -1z m1352 0 c29 -16 37 -28 37 -64 0 -69 -48 -94 -235
-121 -147 -21 -180 -16 -195 33 -15 44 -8 120 14 141 9 9 40 20 69 24 73 9
283 1 310 -13z m-11825 -1 c14 -14 16 -87 2 -122 -13 -36 -56 -54 -157 -66
-218 -25 -269 -10 -257 73 13 81 39 104 136 116 101 13 262 13 276 -1z m-971
-8 c26 -6 104 -14 172 -19 141 -9 161 -20 161 -91 0 -69 -17 -75 -216 -78
l-174 -3 -25 25 c-20 20 -25 35 -25 75 0 65 14 101 39 101 11 0 42 -5 68 -10z
m12048 -20 c80 -12 119 -35 123 -75 10 -86 -21 -98 -240 -93 -186 4 -193 7
-193 92 0 81 8 86 134 86 58 0 138 -5 176 -10z m-15122 -22 c9 -5 24 -19 32
-32 22 -34 76 -335 64 -357 -18 -35 -184 -38 -218 -4 -13 12 -17 46 -19 166
-6 225 5 256 82 243 22 -3 49 -10 59 -16z m18462 -464 c31 -12 34 -48 15 -180
-11 -71 -20 -145 -20 -164 0 -48 -23 -78 -65 -86 -100 -18 -118 19 -113 239 3
153 4 160 27 178 24 19 118 27 156 13z m-18386 -201 c17 -14 27 -45 45 -133
53 -259 50 -273 -64 -273 -106 0 -110 7 -110 179 0 158 14 208 64 230 40 17
40 17 65 -3z m18291 -463 c10 -5 23 -24 29 -41 15 -43 13 -294 -2 -339 -11
-31 -17 -36 -59 -44 -28 -5 -64 -5 -89 0 -54 11 -60 32 -42 129 7 39 17 115
22 170 8 84 13 103 32 117 23 20 80 24 109 8z m-18233 -229 c81 -50 145 -271
97 -339 -21 -30 -66 -52 -108 -52 -45 0 -77 37 -107 127 -17 49 -24 91 -24
150 0 73 3 84 24 107 30 32 73 34 118 7z m18147 -451 c32 -39 42 -104 28 -199
-24 -160 -49 -201 -125 -201 -78 0 -97 51 -78 207 19 156 54 223 117 223 24 0
39 -8 58 -30z m-18010 -209 c11 -12 20 -48 26 -109 6 -50 16 -108 24 -129 7
-21 19 -53 26 -72 12 -30 11 -36 -5 -47 -9 -7 -39 -18 -67 -23 -123 -27 -132
-16 -173 219 -18 103 -19 152 -3 168 7 7 41 12 83 12 58 0 75 -4 89 -19z
m17871 -435 c54 -23 69 -55 62 -134 -11 -127 -55 -207 -143 -258 -42 -25 -46
-25 -69 -10 -27 18 -85 111 -85 138 0 9 20 40 44 68 42 49 66 108 66 162 0 13
5 29 12 36 16 16 71 15 113 -2z m-17738 -232 c9 -15 18 -64 23 -127 8 -101 26
-167 49 -181 38 -24 -13 -58 -106 -71 -76 -10 -93 11 -127 151 -14 61 -26 120
-26 131 0 59 39 104 108 122 37 10 60 3 79 -25z m17254 -144 c22 -12 79 -107
79 -131 0 -13 -44 -32 -176 -78 -97 -33 -188 -61 -204 -61 -38 0 -51 20 -57
90 -7 73 5 91 85 127 116 51 233 74 273 53z m-642 -215 c17 -8 38 -34 51 -60
19 -39 20 -49 10 -80 -14 -42 -49 -71 -104 -86 -22 -5 -82 -23 -131 -40 -123
-40 -149 -38 -174 8 -15 30 -14 115 2 137 7 10 45 29 83 41 38 13 105 39 149
59 44 20 81 36 83 36 2 0 16 -7 31 -15z m-610 -264 c27 -27 35 -84 16 -120
-43 -85 -291 -181 -364 -142 -74 40 -80 170 -8 171 21 1 82 24 222 84 72 30
108 33 134 7z m-15870 -37 c11 -14 23 -42 27 -63 3 -20 17 -76 31 -126 14 -49
26 -105 26 -124 2 -31 -1 -35 -33 -44 -56 -15 -159 -3 -183 21 -21 22 -35 118
-36 255 -1 66 0 68 32 87 48 30 110 27 136 -6z m15224 -199 c36 -35 32 -138
-6 -173 -58 -55 -286 -123 -340 -103 -30 12 -66 77 -67 119 0 25 8 30 215 112
163 65 176 68 198 45z m-659 -274 c21 -18 45 -62 57 -104 8 -28 6 -29 -59 -59
-94 -43 -261 -105 -303 -113 -49 -9 -69 12 -69 71 0 40 5 50 48 92 50 51 165
116 228 131 45 10 71 5 98 -18z m-14384 -238 c44 -120 64 -207 56 -238 -4 -15
-17 -37 -31 -50 -46 -47 -106 -43 -141 10 -31 47 -75 188 -81 255 -5 56 -2 69
17 92 12 16 41 34 68 42 44 13 48 13 64 -5 9 -10 30 -58 48 -106z m15375 77
c157 -50 243 -69 281 -63 16 3 85 23 154 45 189 61 295 62 322 3 19 -41 -14
-75 -99 -103 -91 -30 -128 -61 -119 -104 18 -89 140 -288 235 -384 85 -86 92
-86 163 -13 32 33 64 59 71 57 29 -10 48 -71 45 -150 -3 -72 -5 -80 -36 -110
-29 -30 -38 -33 -106 -36 -64 -4 -83 0 -131 22 -79 36 -127 76 -194 165 -115
150 -152 166 -265 113 -90 -42 -184 -108 -207 -145 -31 -50 -22 -122 30 -236
54 -116 61 -165 31 -203 -12 -16 -31 -28 -45 -28 -33 0 -117 96 -160 183 -116
236 -38 443 216 576 174 91 219 130 169 146 -27 8 -85 -9 -187 -56 -48 -23
-201 -90 -339 -149 -405 -175 -421 -185 -410 -270 20 -151 222 -380 335 -380
34 0 42 9 56 65 8 29 16 40 30 40 25 0 70 -79 86 -151 15 -66 3 -88 -63 -119
-75 -35 -161 -41 -262 -20 -82 17 -85 17 -153 -3 -38 -12 -116 -42 -173 -68
-151 -67 -202 -83 -292 -90 -78 -7 -82 -8 -147 -60 -154 -125 -312 -169 -449
-129 -67 20 -114 62 -141 125 -25 59 -57 84 -95 74 -66 -16 -158 36 -171 97
-11 48 22 74 140 111 162 49 296 131 282 172 -8 23 -40 16 -145 -32 -59 -28
-188 -80 -287 -117 -301 -112 -325 -126 -311 -178 15 -59 178 -299 283 -416
l49 -55 69 82 c37 45 76 82 85 82 10 0 22 -18 34 -50 22 -62 75 -110 147 -136
57 -20 123 -77 139 -120 18 -46 12 -143 -11 -180 -53 -86 -201 -175 -359 -214
-56 -14 -132 -24 -220 -27 -117 -5 -148 -2 -219 16 -159 40 -214 105 -121 144
14 5 113 13 220 18 266 10 412 45 486 115 39 36 43 59 13 75 -35 18 -91 5
-189 -46 -118 -59 -125 -57 -212 68 -113 162 -177 244 -205 262 -24 16 -33 17
-88 6 -33 -7 -66 -17 -73 -23 -9 -8 -11 -47 -10 -148 3 -127 1 -141 -18 -167
-49 -66 -115 -93 -250 -100 -111 -6 -146 4 -208 59 -109 95 -102 168 29 323
79 94 105 137 105 171 0 46 -30 52 -134 26 -212 -52 -506 -204 -506 -261 0
-59 152 -280 244 -356 88 -72 149 -67 174 13 11 34 18 42 38 42 19 0 29 -8 39
-34 38 -90 28 -160 -31 -219 -61 -61 -151 -81 -234 -52 -78 28 -110 18 -215
-65 -87 -69 -134 -90 -200 -90 -110 0 -267 71 -345 157 -117 128 -140 277 -59
388 17 22 25 41 19 43 -15 5 -152 -50 -287 -115 -121 -58 -173 -104 -173 -151
0 -32 68 -146 139 -236 118 -147 223 -206 249 -138 6 15 12 38 14 51 5 39 24
36 73 -11 60 -58 77 -117 49 -174 -24 -49 -74 -75 -157 -81 -80 -7 -131 8
-206 58 -76 51 -134 127 -231 306 -41 75 -90 155 -109 176 -39 44 -52 44 -137
7 -35 -16 -60 -21 -78 -16 -28 7 -116 81 -116 98 0 5 25 32 55 60 30 28 55 54
55 58 0 3 -18 31 -40 60 -50 67 -61 106 -48 160 26 100 215 222 426 275 87 22
323 34 658 35 404 0 413 2 889 203 352 148 467 195 1679 688 1416 577 1387
565 1394 601 4 22 -80 33 -198 25 -112 -7 -200 -30 -277 -73 -68 -38 -90 -41
-132 -19 -36 18 -81 71 -81 94 0 37 106 114 214 157 56 22 71 24 191 20 119
-4 141 -8 260 -46z m-1606 -133 l24 -69 -24 -23 c-24 -23 -201 -107 -296 -141
-64 -22 -74 -16 -102 69 -27 78 -26 93 3 112 51 34 301 125 336 122 34 -2 36
-5 59 -70z m-13641 -482 c33 -9 51 -53 78 -188 26 -135 30 -207 12 -225 -7 -7
-34 -12 -61 -12 -40 0 -54 5 -77 28 -57 58 -112 308 -80 368 8 13 27 28 44 33
31 9 41 8 84 -4z m11689 -219 c16 -13 42 -50 58 -81 28 -56 28 -58 10 -71 -10
-8 -36 -14 -56 -14 -44 0 -156 -38 -251 -86 -90 -46 -104 -45 -119 9 -36 127
-2 168 196 238 98 35 125 36 162 5z m-617 -265 c16 -16 32 -40 36 -55 11 -46
-16 -70 -133 -116 -59 -24 -134 -56 -165 -71 -69 -35 -93 -36 -112 -6 -20 32
-28 105 -16 143 13 39 50 63 140 93 155 50 210 53 250 12z m-10846 -195 c25
-24 99 -234 112 -314 7 -46 12 -43 -79 -63 -55 -12 -58 -11 -82 11 -66 62
-140 280 -115 339 14 35 42 49 98 50 32 1 49 -5 66 -23z m10210 -18 c41 -58 6
-143 -78 -193 -53 -31 -265 -108 -281 -101 -17 6 -57 137 -53 172 3 26 9 30
68 46 36 9 106 35 155 57 107 48 165 54 189 19z m6201 -198 c3 -5 -12 -42 -34
-82 -21 -40 -52 -118 -67 -173 -34 -123 -60 -155 -126 -155 -76 0 -82 11 -86
145 -4 141 4 166 66 202 96 56 230 91 247 63z m-6860 -44 c36 -36 50 -98 30
-136 -29 -56 -271 -150 -349 -136 -40 8 -68 42 -86 105 -13 46 -3 55 75 75
103 26 174 56 206 87 38 37 89 40 124 5z m6301 -220 c67 -67 37 -127 -78 -161
-95 -28 -147 -52 -185 -85 -18 -17 -40 -30 -48 -30 -27 0 -72 50 -83 90 -23
91 19 139 158 184 94 31 105 33 159 35 36 1 48 -4 77 -33z m-15619 -151 c31
-55 103 -277 105 -321 1 -28 -5 -42 -21 -56 -69 -55 -158 14 -235 184 -41 89
-51 130 -37 157 12 22 127 82 151 78 8 -1 25 -20 37 -42z m14972 -77 c53 -56
21 -178 -46 -178 -33 0 -134 -35 -219 -76 -102 -49 -98 -51 -115 55 -10 66 -9
74 8 93 24 28 167 95 239 112 84 20 110 19 133 -6z m874 -132 c77 -32 90 -91
35 -155 -23 -27 -43 -68 -57 -114 -13 -39 -28 -90 -35 -111 -18 -58 -37 -66
-92 -37 -53 29 -94 74 -94 104 0 32 65 211 95 262 14 24 33 49 43 54 24 15 67
13 105 -3z m-1511 -103 c13 -27 22 -70 22 -98 1 -47 -1 -50 -39 -72 -22 -13
-98 -42 -169 -65 -147 -48 -162 -46 -203 27 -43 75 -34 87 117 148 58 24 132
58 165 75 33 18 66 32 73 32 7 0 23 -21 34 -47z m-643 -267 c12 -18 24 -47 27
-65 13 -63 -91 -132 -256 -167 -80 -17 -142 -18 -158 -2 -7 7 -12 36 -12 65 0
71 22 92 130 128 47 14 113 42 148 61 73 38 87 36 121 -20z m-6945 -39 c25
-38 40 -124 26 -156 -13 -31 -47 -51 -88 -51 -46 0 -103 -20 -126 -44 -66 -71
-150 -55 -195 37 -30 62 -20 76 81 121 46 21 121 55 168 76 101 45 115 47 134
17z m-6552 3 c51 -14 79 -54 139 -196 l49 -117 -21 -23 c-29 -31 -102 -64
-140 -64 -29 0 -33 5 -84 113 -61 130 -100 240 -92 261 11 29 89 42 149 26z
m8685 -162 c13 -12 23 -31 23 -44 0 -32 -57 -77 -139 -110 -51 -21 -71 -33
-68 -44 10 -42 199 -330 252 -387 81 -84 105 -86 183 -8 31 30 59 55 64 55 14
0 36 -61 47 -131 15 -89 1 -136 -44 -155 -52 -21 -193 -18 -262 6 -83 29 -111
26 -183 -21 -99 -64 -152 -81 -267 -87 -56 -2 -117 -2 -137 2 -47 9 -88 45
-125 111 -38 67 -58 80 -145 99 -84 17 -101 33 -101 91 0 57 30 91 90 99 76
12 285 131 335 191 14 17 13 18 -25 11 -22 -4 -152 -52 -290 -106 -362 -142
-401 -151 -444 -106 -60 64 13 122 304 241 77 31 196 83 265 115 155 71 323
133 460 170 131 36 176 37 207 8z m6719 -60 c33 -37 36 -45 32 -88 -7 -70 -77
-208 -132 -258 -25 -23 -55 -42 -66 -42 -24 0 -61 18 -72 34 -25 37 15 189 83
317 52 98 91 107 155 37z m-2591 36 c28 -11 77 -92 73 -122 -3 -23 -18 -35
-101 -81 l-97 -53 5 -177 c55 -1719 67 -1975 105 -2368 22 -225 38 -593 25
-593 -4 0 -105 58 -224 129 -565 336 -984 530 -1336 620 -93 23 -423 86 -509
97 -58 7 -59 6 -53 -16 10 -37 92 -166 349 -548 734 -1091 887 -1323 917
-1384 28 -56 32 -73 26 -110 -8 -53 -54 -151 -94 -199 -66 -79 -212 -146 -297
-136 -171 19 -370 209 -1545 1482 -436 472 -495 532 -549 560 -91 47 -225 -25
-427 -231 -154 -158 -157 -159 -393 -159 -236 0 -264 8 -392 109 -116 92 -188
128 -317 161 -57 14 -131 39 -165 55 -98 46 -185 54 -601 55 -396 0 -537 -10
-629 -47 -28 -11 -143 -51 -256 -90 -393 -133 -536 -198 -874 -393 -399 -230
-794 -477 -1021 -640 -164 -117 -171 -121 -184 -98 -5 10 -12 68 -16 128 -8
127 -26 219 -55 275 -11 21 -20 48 -20 58 0 24 36 57 85 78 38 15 40 15 56 -4
10 -13 18 -50 22 -106 8 -91 22 -136 44 -136 32 0 177 94 408 265 326 241 462
328 692 444 443 221 878 362 1273 412 121 16 414 15 550 0 257 -29 596 -99
829 -172 53 -16 168 -66 256 -110 174 -87 245 -106 345 -94 75 9 131 36 195
92 52 47 122 92 335 217 75 43 106 67 108 82 6 41 -164 204 -212 204 -12 0
-39 -12 -60 -26 -21 -15 -52 -27 -70 -28 -25 -1 -32 3 -34 22 -3 17 10 35 48
70 43 39 50 50 45 71 -9 34 -86 129 -184 226 -62 61 -83 77 -93 67 -7 -7 -15
-66 -20 -144 -11 -174 -23 -248 -47 -271 -15 -15 -23 -17 -39 -8 -30 16 -41
102 -52 416 -10 310 -16 384 -31 433 -24 75 14 107 204 173 119 41 151 46 191
28 30 -14 56 -74 56 -128 0 -24 5 -41 14 -44 15 -6 167 45 202 68 30 19 30 40
3 125 -13 39 -19 77 -16 92 14 56 297 163 364 137 35 -13 43 -25 43 -71 0 -72
-15 -84 -161 -123 -98 -26 -139 -47 -139 -70 0 -44 106 -36 151 11 20 22 30
25 61 20 29 -5 42 -1 66 19 41 34 74 45 138 45 109 0 148 -36 335 -311 67 -98
131 -186 141 -196 18 -16 47 -18 277 -20 385 -4 1060 -22 1196 -33 66 -6 142
-15 168 -21 74 -17 79 -9 88 163 11 201 10 838 -1 1056 -6 111 -14 193 -22
208 -8 16 -28 31 -53 40 -43 14 -90 61 -100 101 -8 35 16 67 78 107 116 73
251 104 376 86 72 -10 108 -30 122 -67 26 -70 49 -745 64 -1915 5 -405 4 -448
-10 -448 -27 0 -205 69 -295 115 -107 54 -264 105 -495 160 -393 95 -787 160
-1032 172 -131 6 -143 5 -149 -12 -11 -27 25 -83 74 -117 63 -43 124 -62 337
-103 451 -86 882 -234 1400 -480 170 -81 312 -137 338 -133 22 3 22 4 20 198
-1 107 -13 355 -27 550 -31 430 -40 590 -66 1140 -30 631 -49 880 -70 920 -5
9 -16 22 -24 30 -9 7 -16 24 -16 39 1 53 66 104 212 167 102 43 131 50 163 38z
m-6907 -108 c43 -22 74 -61 70 -87 -2 -15 -17 -31 -43 -46 -43 -23 -325 -123
-348 -123 -27 0 -50 40 -55 94 -5 65 6 88 61 120 86 51 255 73 315 42z m-623
-249 c65 -65 55 -134 -20 -150 -83 -17 -123 -30 -207 -69 -100 -45 -127 -46
-147 -4 -31 66 -13 131 50 178 40 30 189 78 243 78 41 0 53 -5 81 -33z m-4945
-104 c60 -114 100 -212 107 -260 5 -37 2 -45 -25 -72 -70 -71 -146 -17 -237
169 -48 100 -56 147 -27 172 21 19 113 67 129 68 6 0 30 -35 53 -77z m11210
-43 c23 -12 79 -103 87 -140 6 -32 3 -33 -91 -44 -27 -4 -63 -15 -80 -26 -48
-31 -147 -77 -184 -85 -45 -9 -76 13 -96 71 -21 61 -20 87 2 107 9 9 69 36
132 60 189 73 196 75 230 57z m-6902 -86 c41 -28 23 -122 -31 -157 -36 -23
-230 -87 -284 -93 -60 -7 -82 8 -93 64 -11 62 4 81 100 129 137 68 260 91 308
57z m10516 -64 c26 -10 28 -14 23 -49 -5 -44 -97 -234 -130 -271 -36 -41 -69
-60 -105 -60 -39 0 -82 38 -82 72 0 70 84 252 138 299 32 28 40 31 81 26 25
-3 59 -10 75 -17z m-4226 -137 c15 -11 34 -32 42 -46 13 -24 13 -28 -9 -51
-42 -45 -280 -146 -344 -146 -61 0 -109 83 -83 145 15 35 18 36 186 95 98 34
165 35 208 3z m-4430 -16 c26 -27 52 -88 52 -120 0 -36 -22 -57 -70 -68 -25
-6 -65 -22 -89 -36 -40 -23 -43 -28 -38 -58 7 -40 175 -315 224 -366 46 -48
108 -67 149 -46 16 8 40 27 53 41 32 34 53 33 85 -4 44 -53 43 -143 -2 -183
-51 -44 -204 -55 -285 -19 -98 43 -191 158 -302 370 -27 50 -61 106 -75 124
-24 28 -33 32 -71 31 -49 -2 -142 -35 -179 -63 -50 -38 -22 -135 85 -295 30
-45 75 -105 101 -134 39 -44 51 -51 82 -51 24 0 52 11 81 30 51 35 88 47 102
33 16 -16 29 -123 20 -165 -17 -75 -83 -116 -164 -103 -23 4 -83 25 -133 46
-50 22 -99 39 -109 39 -9 0 -53 -27 -98 -61 -128 -96 -270 -149 -403 -149 -66
0 -75 3 -130 39 -58 38 -145 122 -178 171 -38 58 -4 99 104 121 135 28 164 87
73 149 -32 22 -47 25 -117 24 -181 -3 -466 -141 -466 -227 0 -66 221 -410 277
-431 16 -7 77 30 151 91 42 34 61 24 80 -38 17 -59 7 -113 -31 -155 -75 -86
-179 -102 -283 -44 -57 32 -62 33 -94 20 -18 -8 -67 -36 -109 -63 -148 -97
-284 -147 -406 -147 -123 0 -185 40 -204 130 -16 75 -34 102 -106 166 -45 39
-65 65 -65 81 0 12 14 52 32 87 18 36 29 68 26 71 -6 6 -298 -115 -395 -164
l-53 -26 25 -54 c40 -85 130 -233 179 -293 60 -74 103 -100 158 -96 40 3 45 7
81 62 33 49 41 56 52 45 15 -15 65 -157 65 -184 0 -60 -83 -119 -183 -131 -42
-5 -70 -1 -122 16 -63 21 -70 21 -99 7 -17 -8 -60 -41 -96 -73 -88 -77 -136
-99 -227 -98 -63 0 -80 4 -157 42 -51 26 -110 65 -145 98 -118 109 -149 227
-96 369 14 37 23 70 21 73 -14 13 -301 -113 -416 -183 l-60 -36 47 -92 c98
-197 198 -320 279 -347 29 -10 39 -9 57 4 80 58 97 67 115 61 44 -13 59 -161
22 -208 -40 -50 -152 -61 -265 -26 -104 32 -167 105 -295 339 -103 189 -105
191 -240 183 -88 -5 -97 -3 -129 18 -67 47 -67 76 2 114 20 11 37 26 37 33 0
7 -12 34 -27 59 -35 60 -44 172 -18 238 37 99 258 219 451 244 43 5 262 13
486 16 223 3 435 10 470 16 96 15 233 65 573 209 171 73 400 168 510 212 538
215 1564 641 1709 709 74 35 86 36 114 6z m-5915 -216 c56 -67 164 -313 155
-356 -1 -10 -15 -27 -30 -38 -68 -51 -156 18 -238 186 -66 134 -65 159 4 205
59 39 77 40 109 3z m9697 4 c36 -19 49 -59 29 -94 -22 -39 -100 -89 -206 -133
-113 -46 -177 -53 -199 -24 -23 32 -28 83 -11 110 23 35 128 95 221 128 92 32
125 34 166 13z m-6944 -50 c36 -36 57 -91 44 -115 -19 -36 -207 -128 -305
-150 -77 -17 -129 21 -136 100 -4 51 0 59 42 70 22 6 97 35 167 65 70 30 135
55 145 55 10 0 29 -11 43 -25z m11510 -197 c43 -20 32 -62 -62 -248 -47 -93
-90 -170 -95 -170 -21 0 -139 96 -145 117 -8 30 6 67 55 152 93 159 150 193
247 149z m-12141 -73 c34 -33 33 -76 -4 -118 -53 -59 -277 -148 -337 -133 -40
11 -64 42 -64 85 0 45 28 74 114 118 144 74 249 91 291 48z m-654 -251 c11
-11 22 -36 25 -56 9 -56 -28 -88 -165 -142 -63 -25 -128 -48 -145 -51 -41 -7
-87 22 -109 68 -36 74 -13 109 83 126 44 7 72 18 90 36 36 34 73 45 143 41 42
-2 63 -8 78 -22z m-1138 -36 c14 -18 53 -87 88 -153 34 -66 64 -122 65 -124 2
-2 58 19 126 47 160 64 178 68 209 43 14 -11 34 -38 44 -60 17 -38 17 -42 1
-66 -25 -38 -229 -135 -300 -142 -55 -6 -58 -5 -94 30 -29 28 -50 39 -92 47
-74 13 -111 55 -179 204 -61 130 -61 127 18 178 59 37 84 36 114 -4z m7445
-144 c33 -23 45 -60 32 -99 -20 -59 -54 -80 -208 -124 -134 -38 -145 -40 -172
-26 -36 19 -50 43 -50 90 0 47 28 72 121 109 79 30 201 65 234 65 11 1 31 -6
43 -15z m6175 -83 c25 -25 25 -70 -1 -119 -19 -37 -117 -197 -147 -239 -18
-26 -51 -29 -98 -10 -45 19 -61 43 -60 88 4 78 105 245 176 290 39 25 100 20
130 -10z m-6819 -161 c37 -45 44 -96 18 -141 l-21 -37 20 -26 c13 -17 100 -66
233 -131 117 -57 220 -113 230 -124 52 -57 -47 -69 -179 -22 -44 16 -172 71
-285 122 -201 92 -206 93 -277 92 l-72 -1 -41 44 c-66 72 -52 134 35 149 61
10 133 35 210 72 38 18 77 33 86 33 10 0 29 -14 43 -30z m-647 -245 c12 -8 29
-35 38 -60 16 -40 16 -47 3 -68 -20 -30 -95 -69 -212 -112 -102 -37 -135 -42
-167 -25 -22 12 -79 107 -79 131 0 18 111 67 270 120 98 33 118 35 147 14z
m7044 -146 c19 -7 49 -23 67 -37 29 -21 33 -29 28 -55 -9 -47 -75 -156 -125
-210 -58 -62 -113 -91 -159 -84 -77 13 -80 48 -16 172 49 95 78 140 127 193
35 36 33 36 78 21z m-6726 -29 c188 -21 345 -67 345 -101 0 -11 -7 -22 -15
-25 -9 -4 -109 3 -223 15 -191 20 -293 40 -317 62 -14 13 17 40 56 49 47 11
53 11 154 0z m-945 -107 c37 -46 47 -78 29 -99 -17 -21 -147 -85 -237 -118
-85 -30 -133 -33 -155 -8 -22 25 -50 99 -44 117 12 29 279 144 339 145 30 0
42 -6 68 -37z m2553 -183 c20 -6 37 -15 37 -20 0 -14 -40 -37 -87 -49 -34 -9
-56 -27 -110 -87 -84 -93 -133 -124 -197 -124 -42 0 -54 5 -93 40 -49 43 -223
135 -371 195 -51 21 -90 40 -87 43 21 22 836 23 908 2z m-3212 -47 c33 -28 72
-100 62 -116 -3 -5 -49 -29 -102 -54 -269 -126 -331 -133 -331 -37 0 72 124
175 265 220 58 18 70 17 106 -13z m8024 -226 c66 -37 57 -80 -52 -249 -94
-145 -138 -174 -196 -128 -38 30 -70 87 -63 113 3 12 24 47 47 77 23 30 57 86
76 123 50 100 94 115 188 64z m-8631 -33 c41 -40 -5 -123 -97 -177 -66 -39
-245 -110 -261 -104 -15 6 -49 88 -59 145 -6 29 -3 35 26 52 35 22 132 60 212
84 69 20 159 20 179 0z m-664 -234 c19 -10 40 -59 40 -95 0 -49 -128 -121
-285 -163 -59 -15 -68 -15 -93 -2 -27 15 -72 90 -72 121 0 11 34 32 103 64
164 78 259 101 307 75z m-653 -252 c11 -13 28 -37 37 -55 32 -64 29 -68 -128
-144 -170 -83 -241 -98 -270 -58 -26 38 -20 74 21 120 48 53 111 96 192 130
81 35 121 37 148 7z m9569 -40 c16 -12 32 -27 36 -33 28 -39 -25 -133 -145
-259 -87 -92 -115 -98 -166 -41 -17 20 -31 43 -31 53 1 46 73 164 153 250 43
45 55 52 87 52 23 0 48 -8 66 -22z m-10188 -234 c32 -22 29 -66 -10 -109 -34
-39 -197 -124 -281 -147 -62 -16 -77 -7 -101 66 -19 57 -19 58 1 84 60 82 324
153 391 106z m-676 -254 c56 -16 76 -72 43 -116 -24 -32 -18 -69 20 -116 116
-143 117 -149 46 -219 -26 -27 -57 -49 -67 -49 -20 0 -100 80 -194 195 -74 90
-160 214 -160 230 0 55 207 104 312 75z m10461 -68 c65 -63 46 -117 -92 -264
-75 -81 -97 -94 -137 -84 -33 9 -94 64 -94 86 0 43 187 282 234 300 28 10 45
3 89 -38z m-401 -519 c42 -41 37 -76 -23 -164 -68 -98 -154 -196 -190 -215
-26 -13 -32 -13 -58 1 -34 17 -69 59 -77 91 -3 12 2 37 12 55 35 70 175 227
229 258 29 16 75 5 107 -26z m-9679 -74 c79 -52 207 -205 207 -246 0 -25 -47
-69 -86 -83 -45 -16 -76 0 -162 83 -157 152 -169 203 -57 261 40 21 45 21 98
-15z m9212 -434 c49 -48 26 -145 -58 -254 -51 -67 -111 -111 -148 -111 -17 0
-42 12 -64 31 -63 55 -45 110 78 238 69 71 133 121 154 121 8 0 25 -11 38 -25z
m-8754 -99 c74 -64 209 -209 209 -226 0 -14 -83 -80 -108 -87 -48 -12 -130 48
-238 175 -76 89 -80 110 -27 164 53 54 74 51 164 -26z m8292 -397 c49 -40 70
-80 58 -111 -20 -53 -128 -180 -195 -229 -53 -39 -89 -38 -132 5 -43 43 -43
70 -1 127 58 81 202 239 217 239 9 0 32 -14 53 -31z"/>
<path d="M10180 11601 c0 -41 111 -207 218 -326 146 -162 193 -224 211 -272
14 -39 22 -49 43 -51 38 -4 63 35 54 86 -3 20 -17 119 -31 219 -30 221 -47
271 -95 295 -79 38 -400 78 -400 49z"/>
<path d="M16000 12004 c-94 -31 -102 -36 -97 -63 3 -14 21 -62 41 -106 45
-101 50 -188 14 -222 -13 -11 -33 -24 -46 -28 -18 -5 -22 -13 -20 -33 5 -41
69 -43 151 -4 72 33 217 145 217 167 0 26 -128 231 -165 264 -34 29 -60 36
-95 25z"/>
<path d="M15594 11829 c-50 -9 -134 -50 -155 -75 -10 -12 -14 -45 -14 -118 l0
-102 -43 -67 c-24 -36 -47 -82 -52 -100 -8 -39 11 -97 33 -97 30 0 143 66 189
110 63 61 65 93 8 151 -22 23 -40 47 -40 54 0 26 42 47 136 66 98 20 133 33
146 53 12 17 10 23 -22 60 -49 56 -116 79 -186 65z"/>
<path d="M14288 11296 c-88 -31 -119 -75 -77 -109 19 -16 36 -18 91 -15 75 4
108 24 108 67 0 32 -8 44 -37 60 -27 14 -39 13 -85 -3z"/>
<path d="M12505 10950 c-152 -34 -289 -96 -355 -159 -48 -45 -49 -69 -5 -90
57 -27 217 13 482 123 61 26 142 54 180 62 92 21 123 34 123 49 0 37 -284 47
-425 15z"/>
<path d="M14119 10851 c-71 -48 -100 -121 -47 -121 31 0 56 18 88 62 31 43 40
88 17 88 -8 0 -33 -13 -58 -29z"/>
<path d="M13075 10819 c-50 -25 -115 -69 -115 -79 0 -4 36 -10 81 -14 45 -4
96 -13 113 -20 47 -20 84 -69 92 -123 10 -66 -1 -77 -75 -81 -59 -3 -64 -1
-98 33 -19 19 -43 35 -54 35 -10 0 -39 -19 -64 -43 -58 -56 -60 -86 -8 -147
20 -23 52 -49 70 -56 44 -19 139 -18 198 3 63 21 155 108 155 146 0 95 -175
368 -235 367 -11 -1 -38 -10 -60 -21z"/>
<path d="M10600 9775 c0 -8 9 -37 20 -65 33 -85 29 -105 -50 -208 -92 -122
-99 -151 -43 -173 52 -20 198 46 229 102 29 52 5 179 -50 273 -39 67 -106 112
-106 71z"/>
<path d="M14447 9582 c-32 -35 -36 -157 -37 -919 l0 -753 -52 0 c-29 0 -105 5
-168 10 -278 23 -510 42 -855 71 -394 33 -676 42 -695 23 -20 -20 6 -51 57
-68 67 -22 197 -41 488 -71 422 -44 767 -103 995 -171 47 -15 146 -50 221 -80
76 -30 146 -54 158 -54 15 0 22 9 28 38 12 56 7 1487 -6 1716 -13 235 -23 269
-82 274 -24 2 -40 -3 -52 -16z"/>
<path d="M11207 8334 c-13 -13 5 -24 38 -24 41 0 67 9 59 21 -6 10 -87 12 -97
3z"/>
<path d="M11014 8274 c-9 -34 15 -59 49 -50 51 12 40 76 -13 76 -24 0 -31 -5
-36 -26z"/>
<path d="M7968 8730 c-59 -18 -128 -63 -128 -84 0 -12 23 -67 51 -123 39 -77
50 -108 45 -127 -4 -15 -31 -56 -62 -91 -30 -36 -52 -70 -48 -76 12 -20 109
-3 171 31 72 38 203 146 203 167 0 21 -126 263 -148 284 -23 22 -51 29 -84 19z"/>
<path d="M6863 8248 c-6 -7 -13 -33 -17 -57 -15 -101 -97 -201 -164 -201 -35
0 -99 -30 -114 -54 -29 -44 37 -33 163 29 122 60 147 65 174 35 39 -43 -6
-103 -160 -211 -58 -40 -105 -77 -105 -81 0 -4 28 -8 63 -8 82 0 146 31 231
113 109 106 124 151 87 259 -27 77 -49 118 -84 156 -32 34 -58 40 -74 20z"/>
<path d="M5155 7939 c-148 -19 -339 -92 -442 -168 -55 -40 -55 -62 -1 -101 56
-41 88 -39 215 16 58 25 190 74 292 110 289 102 336 127 270 145 -34 10 -251
8 -334 -2z"/>
<path d="M5608 7768 c-34 -24 -63 -47 -63 -53 0 -5 40 -14 90 -18 49 -4 101
-13 114 -20 41 -20 71 -74 71 -128 0 -43 -4 -51 -37 -78 -42 -34 -88 -48 -107
-32 -8 6 -16 29 -20 50 -7 49 -25 65 -58 52 -36 -14 -97 -89 -104 -128 -6 -30
-2 -39 27 -69 50 -51 130 -88 176 -81 41 7 139 71 222 146 l54 49 -48 88 c-57
106 -126 215 -154 243 -35 35 -89 28 -163 -21z"/>
<path d="M5560 3843 c-615 -62 -1104 -159 -1535 -304 -358 -121 -636 -261
-768 -388 -140 -134 -121 -251 80 -475 167 -186 201 -229 240 -305 37 -72 38
-77 38 -180 -1 -98 -4 -114 -39 -206 -52 -136 -174 -371 -230 -443 -25 -32
-46 -62 -46 -66 0 -15 57 3 152 47 186 89 351 134 741 205 147 27 271 52 275
56 4 4 8 204 10 444 3 581 19 833 58 954 21 66 77 134 144 177 122 79 343 129
840 191 464 58 664 99 716 147 33 31 20 53 -50 88 -94 46 -218 65 -416 63 -96
-1 -191 -3 -210 -5z"/>
<path d="M13830 3841 c-131 -19 -251 -70 -272 -117 -15 -33 11 -60 76 -79 96
-27 562 -96 976 -144 227 -27 309 -43 397 -80 87 -36 146 -75 197 -131 88 -98
95 -162 104 -903 4 -328 10 -599 14 -603 4 -4 146 -31 315 -60 430 -73 522
-99 725 -200 59 -30 110 -54 113 -54 3 0 -48 105 -113 233 -143 280 -177 377
-177 497 0 149 42 227 241 451 63 72 131 155 150 184 31 49 34 61 34 127 0 56
-5 81 -21 107 -27 44 -115 130 -175 172 -155 107 -634 302 -984 402 -224 64
-580 129 -975 177 -182 23 -531 34 -625 21z"/>
<path d="M6215 3473 c-11 -2 -47 -13 -80 -23 -106 -34 -308 -58 -736 -90 -152
-11 -308 -24 -346 -30 -90 -12 -191 -44 -233 -72 -60 -41 -75 -71 -78 -158 -4
-86 13 -141 52 -163 15 -9 114 -12 371 -12 315 0 375 3 600 28 271 30 386 53
477 94 92 41 100 72 77 285 -17 152 -22 160 -104 141z"/>
<path d="M13516 3448 c-31 -27 -45 -110 -46 -253 0 -108 10 -127 78 -149 72
-24 309 -75 435 -94 148 -22 939 -25 999 -4 46 16 85 61 94 106 7 41 -23 116
-64 159 -84 88 -180 111 -592 142 -353 26 -599 55 -731 86 -70 16 -131 29
-137 29 -6 0 -22 -10 -36 -22z"/>
<path d="M9425 3249 c-285 -10 -698 -37 -920 -60 -104 -10 -257 -26 -340 -34
-82 -9 -226 -27 -320 -41 -93 -14 -206 -29 -250 -34 -151 -16 -410 -61 -675
-115 -1192 -244 -1388 -271 -1893 -262 l-307 5 -5 -21 c-3 -12 -6 -416 -8
-897 -2 -801 -1 -880 15 -930 31 -99 121 -163 256 -181 154 -19 340 5 772 103
449 101 1046 222 1755 357 217 41 476 75 985 130 515 56 1160 87 1605 77 385
-9 955 -43 1200 -71 116 -13 239 -26 275 -30 363 -34 1545 -247 2195 -395 499
-114 718 -151 925 -157 165 -5 166 -5 219 22 70 35 145 106 172 163 20 40 24
69 30 232 15 373 3 1496 -16 1542 -11 28 -67 37 -295 48 -791 38 -801 39
-1510 180 -1480 294 -2713 412 -3865 369z m-140 -333 c32 -32 46 -83 52 -198
6 -111 1 -144 -27 -153 -27 -8 -64 13 -156 90 -88 75 -162 115 -212 115 -60 0
-130 -49 -177 -122 -17 -28 -17 -28 16 -59 44 -41 123 -80 244 -119 218 -71
356 -172 425 -309 18 -36 21 -57 18 -116 -3 -60 -9 -80 -38 -129 -43 -70 -167
-198 -227 -233 -65 -38 -181 -46 -388 -29 -90 8 -176 20 -192 28 -27 13 -29
18 -45 133 -29 214 -21 276 35 261 14 -3 72 -53 129 -110 85 -84 115 -107 161
-125 147 -55 291 8 292 128 0 39 -5 47 -50 90 -39 35 -81 59 -180 100 -199 82
-299 138 -354 196 -69 73 -95 127 -95 200 -1 76 24 130 100 214 89 98 134 114
354 131 80 6 170 17 200 24 78 20 88 19 115 -8z m872 7 c7 -3 11 -9 8 -13 -3
-4 -9 -86 -15 -181 -5 -96 -12 -205 -15 -244 l-6 -70 121 120 c133 131 202
215 246 300 34 64 28 63 211 40 139 -18 221 -34 246 -47 18 -9 18 -11 -3 -33
-13 -14 -75 -51 -139 -84 -191 -99 -322 -196 -356 -262 -14 -26 -13 -32 18
-89 56 -106 269 -403 339 -471 l66 -66 -28 -50 c-50 -87 -108 -99 -303 -63
-204 37 -227 51 -169 99 18 14 32 34 32 44 0 72 -192 337 -243 337 -42 0 -87
-110 -87 -211 0 -107 29 -149 103 -149 38 0 71 -28 65 -56 -6 -33 -80 -46
-253 -48 -236 -1 -337 23 -381 89 -25 39 -7 71 48 85 73 18 89 29 108 73 34
80 44 180 45 467 0 321 -2 328 -84 382 -74 48 -80 100 -13 112 33 5 420 -4
439 -11z m1311 -74 c363 -39 576 -106 641 -203 25 -38 26 -46 26 -170 0 -119
-2 -136 -24 -180 -34 -68 -83 -114 -137 -128 -34 -9 -44 -17 -44 -33 0 -11 34
-76 75 -143 89 -146 175 -313 175 -342 0 -12 -5 -40 -11 -64 -10 -41 -13 -44
-58 -54 -49 -11 -83 -7 -112 12 -9 6 -66 71 -127 145 -107 129 -162 214 -162
253 0 51 -133 218 -174 218 -9 0 -19 -15 -25 -37 -20 -79 -42 -240 -39 -288
l3 -49 60 -12 c91 -18 119 -65 64 -106 -66 -50 -262 -42 -434 17 -85 30 -106
41 -144 81 -50 52 -47 57 32 68 60 7 83 20 101 54 13 26 91 435 120 632 19
128 14 148 -50 220 -56 63 -66 92 -36 109 22 14 158 14 280 0z m-3196 -66 c22
-20 23 -56 2 -74 -10 -8 -35 -18 -58 -24 -89 -22 -89 -62 14 -650 55 -319 62
-418 31 -435 -28 -15 -102 -12 -151 5 -73 26 -161 98 -422 346 -234 223 -357
329 -379 329 -16 0 -10 -40 16 -113 14 -38 44 -160 66 -271 22 -110 48 -214
58 -231 16 -28 21 -30 83 -30 83 -1 98 -12 98 -75 0 -82 -15 -89 -325 -140
-320 -53 -568 -103 -674 -137 -98 -31 -114 -26 -119 35 -3 38 1 44 47 88 28
27 51 55 51 64 0 26 -87 117 -133 139 -89 43 -181 19 -259 -68 -48 -53 -101
-147 -92 -162 3 -5 20 -9 37 -9 53 0 105 -19 127 -47 24 -30 26 -85 5 -103 -9
-8 -76 -18 -161 -25 -123 -11 -151 -16 -173 -34 -67 -54 -118 -62 -155 -25
-31 30 -10 114 29 114 28 0 76 76 114 182 51 140 72 230 136 594 49 276 70
346 119 399 40 42 73 45 115 9 41 -34 146 -174 178 -238 64 -127 328 -516 413
-609 43 -47 59 -58 104 -68 68 -15 138 -5 174 26 25 22 27 30 30 112 3 73 -5
137 -43 349 -83 460 -73 436 -170 432 -42 -2 -67 2 -79 11 -25 21 -17 70 15
93 34 26 174 66 280 80 158 21 176 10 556 -357 135 -130 247 -234 250 -232 7
8 -46 349 -63 407 -22 75 -50 127 -75 140 -12 7 -37 9 -59 5 -34 -6 -43 -3
-65 19 -32 33 -34 80 -2 100 12 8 94 30 182 50 88 19 169 37 180 39 51 12 129
7 147 -10z m4380 -127 c31 -20 148 -51 290 -76 173 -31 175 -31 189 -95 10
-47 10 -57 -5 -79 -20 -31 -35 -32 -86 -6 -22 11 -44 20 -49 20 -21 0 -41 -63
-76 -232 -19 -95 -48 -211 -64 -258 -57 -164 -88 -379 -59 -408 7 -7 23 -12
35 -12 30 0 73 -42 73 -71 0 -30 -28 -59 -56 -59 -57 0 -521 82 -543 96 l-23
16 24 25 c14 14 54 35 89 47 61 21 64 23 72 61 17 89 78 327 113 440 29 95 37
142 41 228 7 139 -4 181 -68 246 -27 28 -49 55 -49 61 0 22 22 51 52 70 32 19
53 16 100 -14z m1173 -301 c220 -53 404 -101 409 -106 5 -4 11 -61 14 -126 4
-109 3 -123 -18 -163 -46 -92 -103 -125 -134 -77 -8 12 -17 47 -21 77 -9 73
-26 110 -69 158 -70 78 -127 78 -166 2 -11 -22 -43 -134 -71 -248 -65 -271
-83 -332 -126 -423 -32 -71 -34 -79 -22 -105 11 -22 28 -34 69 -47 75 -25 81
-32 78 -85 -2 -35 -9 -49 -29 -65 -26 -19 -27 -19 -75 2 -56 25 -163 53 -324
86 -133 27 -161 36 -190 65 -43 43 -8 90 68 90 71 0 91 9 111 49 16 31 114
369 187 645 28 103 31 168 8 190 -23 23 -108 21 -160 -4 -24 -12 -72 -54 -114
-100 -78 -87 -109 -100 -145 -60 -33 36 -22 81 43 187 33 54 67 113 77 132
l17 34 91 -5 c70 -4 188 -29 492 -103z m-8206 -103 c6 -49 11 -125 11 -170 0
-68 -3 -85 -20 -102 -27 -27 -43 -19 -125 61 -41 40 -92 78 -125 93 -132 61
-290 4 -290 -104 0 -67 55 -111 157 -125 32 -4 70 -19 103 -40 30 -19 92 -44
151 -60 55 -15 114 -37 132 -49 68 -46 160 -230 161 -322 1 -99 -100 -251
-201 -307 -93 -50 -150 -59 -334 -51 l-166 6 -32 -31 c-21 -20 -41 -31 -54
-29 -64 9 -150 359 -104 422 13 18 15 17 53 -2 21 -12 73 -50 114 -87 175
-153 309 -172 410 -58 84 96 40 164 -163 248 -207 86 -293 132 -362 196 -88
83 -119 148 -113 232 6 70 22 107 78 183 48 64 116 108 200 129 55 14 375 50
476 54 l31 1 12 -88z m8996 -86 c110 -24 217 -47 238 -51 48 -8 74 -43 56 -77
-18 -34 -39 -46 -94 -54 -97 -13 -130 -77 -185 -352 -21 -101 -44 -185 -66
-236 -37 -83 -74 -206 -74 -243 0 -28 34 -60 71 -68 44 -10 89 -57 89 -94 0
-40 -28 -55 -89 -46 -80 11 -475 107 -503 121 -34 18 -60 56 -53 76 7 19 48
38 79 38 66 0 103 33 120 105 4 17 23 65 42 107 22 50 48 137 70 239 20 98 49
196 71 248 47 112 53 164 23 196 -13 14 -39 30 -59 36 -20 6 -42 16 -48 22
-13 9 -18 88 -7 99 3 3 31 0 62 -8 31 -7 147 -33 257 -58z"/>
<path d="M11662 2679 c-13 -5 -31 -27 -42 -51 -38 -88 -47 -281 -14 -309 9 -7
41 -10 83 -7 57 3 75 8 96 28 23 22 25 30 25 110 0 48 -5 102 -11 121 -27 78
-87 126 -137 108z"/>
<path d="M6236 1943 c-3 -21 -14 -73 -25 -116 -17 -69 -17 -79 -4 -84 19 -8
160 36 175 55 24 29 -78 182 -121 182 -16 0 -21 -8 -25 -37z"/>
<path d="M9905 1151 c-60 -7 -105 -24 -105 -41 0 -15 63 -58 114 -77 73 -27
77 -41 32 -108 -45 -65 -69 -74 -122 -47 -58 30 -171 112 -241 175 -40 36 -78
60 -105 68 -83 23 -578 -9 -638 -41 -31 -17 -24 -38 21 -60 71 -37 146 -88
539 -369 467 -333 580 -411 595 -411 21 0 210 125 398 263 263 193 620 442
710 494 89 53 98 74 40 95 -28 10 -110 13 -313 13 -327 0 -335 -2 -461 -103
-152 -122 -162 -124 -225 -56 -62 68 -62 80 -4 136 28 27 50 52 50 57 0 19
-152 26 -285 12z"/>
</g>
</svg>
